<svg xmlns="http://www.w3.org/2000/svg" viewBox="0 0 86.78 78.62"><defs><style>.cls-1{fill:#fff;}</style></defs><title>flota-2-i1</title><g id="Capa_2" data-name="Capa 2"><g id="Layer_1" data-name="Layer 1"><path class="cls-1" d="M86.78,0V2.21A19,19,0,0,0,81.1,3a4.12,4.12,0,0,0-2.59,2.65,20.05,20.05,0,0,0-.66,6V66.38a20.05,20.05,0,0,0,.66,6A4,4,0,0,0,81.1,75a22.44,22.44,0,0,0,5.68.88v2.21c-1.69-.15-3.81-.24-6.34-.28s-5.09-.05-7.67-.05c-2.86,0-5.55,0-8,.05s-4.53.13-6.07.28V75.86A22.44,22.44,0,0,0,64.34,75a4,4,0,0,0,2.59-2.65,20.05,20.05,0,0,0,.66-6V5.73l.44.33L41,78.62H39.25L11.47,7.06V65.28a21.78,21.78,0,0,0,.71,6.23,5,5,0,0,0,2.87,3.2,19.41,19.41,0,0,0,6.45,1.15v2.21c-1.32-.15-3.05-.24-5.18-.28s-4.15-.05-6.07-.05-3.69,0-5.56.05-3.44.13-4.69.28V75.86a15.58,15.58,0,0,0,5.68-1.15,4.91,4.91,0,0,0,2.59-3.2,23.22,23.22,0,0,0,.66-6.23V11.69a20.05,20.05,0,0,0-.66-6A4.14,4.14,0,0,0,5.68,3,19,19,0,0,0,0,2.21V0C1.25.07,2.81.15,4.69.22s3.73.11,5.56.11c1.62,0,3.29,0,5-.11S18.45.07,19.63,0l25,65.94-1.88.88L67.59.33h5.18c2.58,0,5.13,0,7.67-.11S85.09.07,86.78,0Z"/></g></g></svg>