<svg xmlns="http://www.w3.org/2000/svg" viewBox="0 0 300 118.91"><defs><style>.cls-1{fill:#fff;}</style></defs><g id="Capa_2" data-name="Capa 2"><g id="Layer_1" data-name="Layer 1"><path class="cls-1" d="M76.61,12.4v1.93a16.86,16.86,0,0,0-5,.73,3.63,3.63,0,0,0-2.28,2.32,17.32,17.32,0,0,0-.59,5.26V70.56a17.42,17.42,0,0,0,.59,5.22,3.47,3.47,0,0,0,2.28,2.31,20,20,0,0,0,5,.78V80.8c-1.5-.13-3.36-.21-5.6-.24s-4.49,0-6.77,0q-3.79,0-7.1,0c-2.21,0-4,.11-5.35.24V78.87a20,20,0,0,0,5-.78,3.48,3.48,0,0,0,2.29-2.31,17.82,17.82,0,0,0,.58-5.22V17.43l.39.29L36.21,81.28H34.65L10.12,18.59v51a18.33,18.33,0,0,0,.64,5.46,4.33,4.33,0,0,0,2.53,2.8,17.19,17.19,0,0,0,5.69,1V80.8c-1.17-.13-2.69-.21-4.57-.24s-3.67,0-5.36,0-3.26,0-4.91,0-3,.11-4.14.24V78.87a13.74,13.74,0,0,0,5-1,4.26,4.26,0,0,0,2.29-2.8,20.12,20.12,0,0,0,.58-5.46V22.64a17.38,17.38,0,0,0-.58-5.26A3.62,3.62,0,0,0,5,15.06a16.73,16.73,0,0,0-5-.73V12.4c1.1.07,2.48.13,4.14.2s3.29.09,4.91.09c1.43,0,2.91,0,4.43-.09s2.81-.13,3.85-.2L39.42,70.17,37.77,71l21.9-58.26h4.57c2.28,0,4.53,0,6.77-.09S75.11,12.47,76.61,12.4Z"/><path class="cls-1" d="M203.15,29.7a17.29,17.29,0,0,1,6.18,1,11.42,11.42,0,0,1,4.14,2.71,10.94,10.94,0,0,1,2.62,4.83,31.25,31.25,0,0,1,.78,7.82v25.8c0,2.7.57,4.54,1.71,5.5s3,1.45,5.69,1.45v2c-1.1-.06-2.79-.15-5.06-.24s-4.48-.15-6.62-.15-4.23,0-6.28.15-3.58.18-4.62.24v-2c2.33,0,4-.48,5-1.45s1.46-2.8,1.46-5.5V43.9a29.37,29.37,0,0,0-.48-5.51,7.22,7.22,0,0,0-2.19-4.06,7.58,7.58,0,0,0-5.21-1.54,11.7,11.7,0,0,0-9.88,5.07,20.45,20.45,0,0,0-3.75,12.51V71.82c0,2.7.49,4.54,1.46,5.5s2.63,1.45,5,1.45v2c-1-.06-2.58-.15-4.62-.24s-4.14-.15-6.28-.15-4.35,0-6.62.15-4,.18-5.06.24v-2q4,0,5.7-1.45c1.13-1,1.7-2.8,1.7-5.5V41.58q0-4.35-1.56-6.43c-1-1.38-3-2.07-5.84-2.07v-2q3.12.28,6,.29a40.76,40.76,0,0,0,5.4-.34,27.19,27.19,0,0,0,4.72-1v11.4c1.69-4.37,4-7.42,7.06-9.12A19,19,0,0,1,203.15,29.7Z"/><path class="cls-1" d="M281.41,29.7q8.56,0,13.38,5t4.82,15.67H268.28l-.1-1.79h22.09c.87-8.52-1.89-16.49-9.25-17.13-3-.25-5.63,1.45-7.93,4.33S269.4,43.28,269,49.55l.29.38c-.13.94-.23,2-.29,3.11s-.1,2.25-.1,3.38a26,26,0,0,0,2.14,11,17.06,17.06,0,0,0,5.6,7,12.37,12.37,0,0,0,7.15,2.4,16.25,16.25,0,0,0,8.08-2.07q3.71-2.07,6.23-7.34l1.95.75a19.1,19.1,0,0,1-3.5,6A18.6,18.6,0,0,1,290.36,79a18.92,18.92,0,0,1-8.56,1.84,22.35,22.35,0,0,1-12-3.11,20.28,20.28,0,0,1-7.69-8.61,28.53,28.53,0,0,1-2.68-12.66,34.21,34.21,0,0,1,2.72-14.25,21.25,21.25,0,0,1,7.69-9.23A20.72,20.72,0,0,1,281.41,29.7Z"/><path class="cls-1" d="M125.19,104.17a6.13,6.13,0,0,1-4.47-1.87,6.15,6.15,0,0,1,0-8.87,6.25,6.25,0,0,1,8.94,0,6.15,6.15,0,0,1,0,8.87A6.1,6.1,0,0,1,125.19,104.17Z"/><path class="cls-1" d="M129,28.74v42.7q0,4.14,1.74,5.62c1.15,1,3.09,1.48,5.81,1.48v2.07c-1.13-.07-2.83-.15-5.12-.25s-4.59-.15-6.9-.15-4.54.05-6.86.15-4,.18-5.17.25V78.54c2.72,0,4.66-.5,5.82-1.48S120,74.2,120,71.44V40.57c0-3-.54-5.14-1.59-6.56s-3-2.12-6-2.12V29.82q3.18.3,6.17.3a40.73,40.73,0,0,0,5.51-.35A28.38,28.38,0,0,0,129,28.74Z"/><rect class="cls-1" x="119.54" y="115.98" width="11.3" height="2.93"/><path class="cls-1" d="M112.59.41V9.79a5.06,5.06,0,0,1-1.51,3.89,5.76,5.76,0,0,1-4.14,1.42,5.51,5.51,0,0,1-4.08-1.43,5.24,5.24,0,0,1-1.45-3.92V.41h1.7V9.87a3.67,3.67,0,0,0,1,2.78,4,4,0,0,0,2.94,1,3.89,3.89,0,0,0,2.84-1,3.73,3.73,0,0,0,1-2.8V.41Z"/><path class="cls-1" d="M141.3,14.9v-7a2.81,2.81,0,0,0-.61-2,2.47,2.47,0,0,0-1.91-.65,3.13,3.13,0,0,0-2.51.92,4.58,4.58,0,0,0-.8,3v5.7h-1.66V4h1.35l.27,1.48h.08a3.34,3.34,0,0,1,1.43-1.24,4.56,4.56,0,0,1,2-.44,4.2,4.2,0,0,1,3,.94,4,4,0,0,1,1,3V14.9Z"/><path class="cls-1" d="M163.83,1.09a1.08,1.08,0,0,1,.28-.83,1,1,0,0,1,.7-.26,1,1,0,0,1,.68.27,1,1,0,0,1,.29.82,1.06,1.06,0,0,1-.29.83,1,1,0,0,1-1.38,0A1.1,1.1,0,0,1,163.83,1.09Zm1.79,13.81H164V4h1.65Z"/><path class="cls-1" d="M190.63,15.1a4,4,0,0,1-3.31-1.47,6.47,6.47,0,0,1-1.19-4.13,6.51,6.51,0,0,1,1.2-4.17,4.05,4.05,0,0,1,3.34-1.49,4,4,0,0,1,3.45,1.68h.09L194.45,4h1.31V19.78H194.1V15.13a11.32,11.32,0,0,1,.11-1.68h-.13A3.91,3.91,0,0,1,190.63,15.1Zm.25-1.38a3,3,0,0,0,2.41-.88,4.71,4.71,0,0,0,.81-3V9.5a5.4,5.4,0,0,0-.78-3.28,2.92,2.92,0,0,0-2.46-1,2.55,2.55,0,0,0-2.24,1.12,5.62,5.62,0,0,0-.77,3.18,5.38,5.38,0,0,0,.76,3.13A2.6,2.6,0,0,0,190.88,13.72Z"/><path class="cls-1" d="M218.44,4v7.05a2.81,2.81,0,0,0,.61,2,2.46,2.46,0,0,0,1.9.65,3.14,3.14,0,0,0,2.52-.93,4.66,4.66,0,0,0,.79-3V4h1.66V14.9h-1.37l-.24-1.45h-.09a3.38,3.38,0,0,1-1.41,1.23,4.88,4.88,0,0,1-2.07.42,4.19,4.19,0,0,1-3-.94,4,4,0,0,1-1-3V4Z"/><path class="cls-1" d="M251.66,15.1a5,5,0,0,1-3.83-1.47,5.61,5.61,0,0,1-1.4-4.07,6.3,6.3,0,0,1,1.3-4.18,4.35,4.35,0,0,1,3.5-1.54,4.17,4.17,0,0,1,3.26,1.34,5.14,5.14,0,0,1,1.2,3.55v1h-7.55a4.3,4.3,0,0,0,1,2.9,3.37,3.37,0,0,0,2.6,1,8.86,8.86,0,0,0,3.5-.73V14.4a9.11,9.11,0,0,1-1.66.54A9.49,9.49,0,0,1,251.66,15.1Zm-.45-9.88a2.7,2.7,0,0,0-2.1.85,4,4,0,0,0-.93,2.36h5.73a3.61,3.61,0,0,0-.7-2.39A2.47,2.47,0,0,0,251.21,5.22Z"/></g></g></svg>