<svg xmlns="http://www.w3.org/2000/svg" viewBox="0 0 254.72 84.34"><defs><style>.cls-1{fill:#fff;}</style></defs><title>logo-mine</title><g id="Capa_2" data-name="Capa 2"><g id="Layer_1" data-name="Layer 1"><path class="cls-1" d="M93.09,0V2.37A20.3,20.3,0,0,0,87,3.25a4.44,4.44,0,0,0-2.78,2.84,21.23,21.23,0,0,0-.71,6.45V71.21a21.2,21.2,0,0,0,.71,6.38A4.25,4.25,0,0,0,87,80.43a24.06,24.06,0,0,0,6.09.95v2.37c-1.82-.16-4.08-.26-6.8-.3s-5.46-.06-8.22-.06q-4.62,0-8.64.06t-6.5.3V81.38A24.06,24.06,0,0,0,69,80.43a4.27,4.27,0,0,0,2.78-2.84,21.53,21.53,0,0,0,.71-6.38V6.15l.47.36L44,84.34H42.11L12.3,7.57V70a23.13,23.13,0,0,0,.77,6.69,5.34,5.34,0,0,0,3.08,3.43,20.9,20.9,0,0,0,6.92,1.24v2.37c-1.42-.16-3.28-.26-5.56-.3s-4.46-.06-6.51-.06-4,0-6,.06-3.69.14-5,.3V81.38a16.77,16.77,0,0,0,6.09-1.24,5.24,5.24,0,0,0,2.78-3.43A25,25,0,0,0,9.58,70V12.54a21.56,21.56,0,0,0-.71-6.45A4.44,4.44,0,0,0,6.09,3.25,20.3,20.3,0,0,0,0,2.37V0C1.34.08,3,.16,5,.24s4,.12,6,.12c1.73,0,3.53,0,5.38-.12S19.79.08,21.05,0L47.9,70.73l-2,1L72.51.36h5.56q4.14,0,8.22-.12C89,.16,91.27.08,93.09,0Z"/><path class="cls-1" d="M172.4,21.17a20.68,20.68,0,0,1,7.51,1.19,13.63,13.63,0,0,1,5,3.31,13.45,13.45,0,0,1,3.2,5.91,38.75,38.75,0,0,1,.94,9.58V72.75c0,3.31.69,5.55,2.07,6.74s3.69,1.77,6.92,1.77v2.49q-2-.12-6.15-.3t-8-.18c-2.6,0-5.15.06-7.63.18s-4.36.22-5.62.3V81.26q4.26,0,6-1.77c1.18-1.19,1.77-3.43,1.77-6.74V38.56a36.14,36.14,0,0,0-.59-6.74,8.79,8.79,0,0,0-2.66-5Q173.11,25,168.85,25a14.21,14.21,0,0,0-12,6.21q-4.54,6.21-4.55,15.32V72.75c0,3.31.59,5.55,1.77,6.74s3.2,1.77,6,1.77v2.49c-1.27-.08-3.14-.18-5.62-.3s-5-.18-7.63-.18-5.29.06-8,.18-4.81.22-6.15.3V81.26c3.24,0,5.54-.59,6.92-1.77s2.07-3.43,2.07-6.74v-37q0-5.32-1.89-7.86t-7.1-2.55V22.83c2.53.24,5,.35,7.34.35a49.47,49.47,0,0,0,6.56-.41,34,34,0,0,0,5.74-1.24v14q3.08-8.05,8.57-11.18A23,23,0,0,1,172.4,21.17Z"/><path class="cls-1" d="M232.13,21.17q10.41,0,16.26,6.17t5.86,19.18H216.17l-.12-2.18h26.84c1.07-10.44-2.29-20.2-11.24-21-3.61-.31-6.84,1.77-9.64,5.3s-4.47,9.15-5,16.83l.35.46c-.16,1.15-.28,2.42-.35,3.8s-.12,2.77-.12,4.15a32,32,0,0,0,2.6,13.48,20.7,20.7,0,0,0,6.8,8.59,15,15,0,0,0,8.7,2.94,19.63,19.63,0,0,0,9.81-2.54q4.5-2.53,7.57-9l2.37.92a23.6,23.6,0,0,1-4.26,7.38A22.68,22.68,0,0,1,243,81.5a23,23,0,0,1-10.41,2.25A27,27,0,0,1,218,79.94a24.86,24.86,0,0,1-9.34-10.54,35.25,35.25,0,0,1-3.25-15.5,42.07,42.07,0,0,1,3.31-17.46,25.85,25.85,0,0,1,9.34-11.29A25,25,0,0,1,232.13,21.17Z"/><path class="cls-1" d="M109.68,28.45a7.38,7.38,0,0,1-7.28-7.28,7.38,7.38,0,0,1,7.28-7.27,7,7,0,0,1,5.11,2.16,7.14,7.14,0,0,1,0,10.23A7,7,0,0,1,109.68,28.45Z"/></g></g></svg>